<svg id="Layer_1" data-name="Layer 1" xmlns="http://www.w3.org/2000/svg" viewBox="0 0 132 66"><defs><style>.cls-1{isolation:isolate;}.cls-2{fill:#fff;}</style></defs><title>archic_bold_logoArtboard 1</title><g id="Page-1"><g id="Artboard-4-Copy-2"><g id="Group-2"><rect id="Rectangle-12" width="132" height="66"/><g id="archic" class="cls-1"><g class="cls-1"><path class="cls-2" d="M29.43,25.92a5.23,5.23,0,0,1,2,2.37v-3h5.1V42h-5.1V39a5.23,5.23,0,0,1-2,2.37,6.06,6.06,0,0,1-3.3.87,6.72,6.72,0,0,1-3.71-1,7,7,0,0,1-2.57-3,10.21,10.21,0,0,1-1-4.56,10.21,10.21,0,0,1,1-4.58,7.14,7.14,0,0,1,2.57-3,6.79,6.79,0,0,1,3.71-1A6.06,6.06,0,0,1,29.43,25.92Zm-4.31,4.71a4.23,4.23,0,0,0-1,3,4.23,4.23,0,0,0,1,3,3.78,3.78,0,0,0,5.32,0,4.22,4.22,0,0,0,1-3,4.24,4.24,0,0,0-1-3,3.53,3.53,0,0,0-2.66-1.09A3.47,3.47,0,0,0,25.12,30.63Z"/><path class="cls-2" d="M47.71,26a6.34,6.34,0,0,1,3.29-.9v5.49H49.53a5.09,5.09,0,0,0-3.17.87,3.49,3.49,0,0,0-1.12,2.94V42H40.11V25.26h5.13v3.15A7.27,7.27,0,0,1,47.71,26Z"/><path class="cls-2" d="M66.15,26.83a8,8,0,0,1,2.76,4.91H63.48a2.86,2.86,0,0,0-1-1.68,2.93,2.93,0,0,0-1.89-.6,2.75,2.75,0,0,0-2.22,1.07,4.79,4.79,0,0,0-.87,3.1,4.82,4.82,0,0,0,.87,3.11A2.74,2.74,0,0,0,60.6,37.8a2.93,2.93,0,0,0,1.89-.6,2.86,2.86,0,0,0,1-1.68h5.43a7.88,7.88,0,0,1-2.76,4.9,8.26,8.26,0,0,1-5.43,1.79,8.91,8.91,0,0,1-4.37-1,7.31,7.31,0,0,1-3-3,9.26,9.26,0,0,1-1.08-4.56,9.36,9.36,0,0,1,1.06-4.58,7.37,7.37,0,0,1,3-3,9.08,9.08,0,0,1,4.38-1A8.37,8.37,0,0,1,66.15,26.83Z"/><path class="cls-2" d="M86.77,27a7.7,7.7,0,0,1,1.7,5.28V42H83.34V32.88a3.75,3.75,0,0,0-.88-2.63,3.1,3.1,0,0,0-2.36-.94,3.22,3.22,0,0,0-2.48,1,4,4,0,0,0-.91,2.82V42H71.58V19.8h5.13v8.52A5.51,5.51,0,0,1,78.85,26a6.31,6.31,0,0,1,3.35-.87A5.78,5.78,0,0,1,86.77,27Z"/><path class="cls-2" d="M92.22,18.62a3.59,3.59,0,0,1,4.44,0,2.61,2.61,0,0,1,0,3.84,3.62,3.62,0,0,1-4.44,0,2.61,2.61,0,0,1,0-3.84ZM97,25.26V42H91.86V25.26Z"/><path class="cls-2" d="M113.52,26.83a8,8,0,0,1,2.76,4.91h-5.43a2.86,2.86,0,0,0-1-1.68,2.93,2.93,0,0,0-1.89-.6,2.75,2.75,0,0,0-2.22,1.07,4.79,4.79,0,0,0-.87,3.1,4.82,4.82,0,0,0,.87,3.11A2.74,2.74,0,0,0,108,37.8a2.93,2.93,0,0,0,1.89-.6,2.86,2.86,0,0,0,1-1.68h5.43a7.88,7.88,0,0,1-2.76,4.9,8.26,8.26,0,0,1-5.43,1.79,8.91,8.91,0,0,1-4.37-1,7.31,7.31,0,0,1-3-3,9.26,9.26,0,0,1-1.08-4.56,9.36,9.36,0,0,1,1.06-4.58,7.37,7.37,0,0,1,3-3,9.08,9.08,0,0,1,4.38-1A8.37,8.37,0,0,1,113.52,26.83Z"/></g></g></g></g></g></svg>